<?xml version="1.0" encoding="UTF-8"?>
<svg xmlns="http://www.w3.org/2000/svg" width="28" height="32" viewBox="0 0 28 32">
  <path d="M.16,31.1c4.43-2.88,7.6-5.25,9.52-7.12,1.28-1.25,2.41-2.69,3.4-4.3,.99-1.61,1.77-3.31,2.34-5.1,.57-1.79,.86-3.56,.86-5.32,0-1.57-.24-2.97-.72-4.18-.48-1.21-1.17-2.17-2.08-2.86s-1.99-1.04-3.24-1.04c-.48,0-.98,.05-1.5,.16-.52,.11-1.06,.27-1.62,.48-1.15,.43-2.03,.98-2.64,1.66s-.92,1.33-.92,1.94c0,.24,.11,.41,.32,.52,.21,.11,.41,.16,.6,.16,.27,0,.6-.05,1-.16,.19-.05,.37-.09,.54-.12,.17-.03,.35-.04,.54-.04,1.01,0,1.84,.3,2.48,.9,.64,.6,.96,1.39,.96,2.38s-.4,1.79-1.2,2.48c-.8,.69-1.75,1.04-2.84,1.04-1.31,0-2.43-.41-3.36-1.24s-1.4-1.89-1.4-3.2c0-1.57,.44-2.97,1.32-4.2,.88-1.23,2.07-2.19,3.58-2.88S9.28,.02,11.12,.02c2.03,0,3.84,.44,5.44,1.32,1.6,.88,2.87,2.09,3.82,3.62,.95,1.53,1.42,3.27,1.42,5.22,0,2.53-.71,4.96-2.12,7.28-.72,1.2-1.54,2.33-2.46,3.4-.92,1.07-2.09,2.15-3.5,3.26-1.41,1.11-3.19,2.3-5.32,3.58-2.13,1.28-4.79,2.71-7.96,4.28l-.28-.88ZM25.64,3.66c.61,0,1.13,.21,1.56,.64,.43,.43,.64,.95,.64,1.56s-.21,1.13-.64,1.54c-.43,.41-.95,.62-1.56,.62s-1.13-.21-1.56-.62c-.43-.41-.64-.93-.64-1.54s.21-1.13,.64-1.56c.43-.43,.95-.64,1.56-.64Zm0,8.8c.61,0,1.13,.21,1.56,.64,.43,.43,.64,.95,.64,1.56s-.21,1.13-.64,1.54c-.43,.41-.95,.62-1.56,.62s-1.13-.21-1.56-.62c-.43-.41-.64-.93-.64-1.54s.21-1.13,.64-1.56c.43-.43,.95-.64,1.56-.64Z"/>
</svg>