<?xml version="1.0" encoding="UTF-8"?>
<svg xmlns="http://www.w3.org/2000/svg" width="25" height="70" viewBox="0 0 25 70">
  <path d="M10.84,21.68c-.37-1.41-.68-2.81-.92-4.2-.24-1.39-.36-2.8-.36-4.24,0-1.25,.09-2.43,.26-3.54,.17-1.11,.42-2.13,.74-3.06,.35-1.07,.8-2.07,1.36-3.02,.56-.95,1.15-1.73,1.78-2.34,.63-.61,1.18-.92,1.66-.92,.64,0,1.52,1.13,2.64,3.4,.56,1.15,.97,2.39,1.24,3.72,.27,1.33,.4,2.76,.4,4.28,0,1.89-.25,3.78-.76,5.66-.51,1.88-1.25,3.65-2.22,5.3s-2.14,3.11-3.5,4.36l1.4,6.72c.4-.05,.73-.09,1-.12,.27-.03,.47-.04,.6-.04,1.63,0,3.08,.46,4.36,1.38s2.3,2.13,3.06,3.62c.76,1.49,1.14,3.13,1.14,4.92,0,2.05-.53,3.9-1.58,5.54-1.05,1.64-2.63,2.85-4.74,3.62,.13,.45,.52,2.35,1.16,5.68,.16,.8,.28,1.43,.36,1.9,.08,.47,.13,.87,.16,1.22s.04,.75,.04,1.2c0,1.33-.33,2.53-.98,3.58-.65,1.05-1.53,1.87-2.64,2.46-1.11,.59-2.34,.88-3.7,.88s-2.61-.26-3.68-.78c-1.07-.52-1.91-1.24-2.52-2.16-.61-.92-.92-1.98-.92-3.18,0-1.28,.35-2.35,1.06-3.2,.71-.85,1.71-1.28,3.02-1.28,1.12,0,2.03,.41,2.74,1.22,.71,.81,1.06,1.78,1.06,2.9,0,.96-.33,1.8-1,2.52-.67,.72-1.53,1.08-2.6,1.08h-.4c.69,1.04,1.79,1.56,3.28,1.56,1.84,0,3.28-.6,4.32-1.8s1.56-2.73,1.56-4.6c0-.45-.05-1.06-.16-1.82s-.29-1.67-.56-2.74c-.27-1.07-.47-1.95-.62-2.64-.15-.69-.25-1.19-.3-1.48-.91,.27-1.97,.4-3.2,.4-2.29,0-4.53-.67-6.72-2-2.13-1.33-3.81-3.09-5.04-5.28-1.23-2.19-1.84-4.55-1.84-7.08,0-2.4,.55-4.65,1.64-6.76,1.09-2.11,2.45-4.04,4.06-5.8s3.23-3.44,4.86-5.04Zm3.36,16.88c-.72,.16-1.4,.5-2.04,1.02-.64,.52-1.15,1.15-1.54,1.88s-.58,1.51-.58,2.34c0,.67,.17,1.35,.52,2.06,.35,.71,.77,1.27,1.28,1.7,.35,.32,.69,.56,1.04,.72,.4,.19,.6,.36,.6,.52,0,.08-.13,.16-.4,.24-1.01-.24-1.93-.69-2.74-1.36-.81-.67-1.45-1.47-1.92-2.42-.47-.95-.7-1.95-.7-3.02,0-1.15,.23-2.25,.7-3.32,.47-1.07,1.12-2.03,1.96-2.88,.84-.85,1.79-1.49,2.86-1.92l-1.16-6.04c-3.09,2.51-5.37,4.97-6.82,7.38-1.45,2.41-2.18,4.81-2.18,7.18,0,1.73,.45,3.35,1.36,4.84,.91,1.49,2.15,2.7,3.72,3.62s3.35,1.38,5.32,1.38c.53,0,1.07-.05,1.62-.16,.55-.11,1.13-.24,1.74-.4l-2.64-13.36Zm-2.28-17.88c.61-.32,1.27-.91,1.96-1.78,.69-.87,1.36-1.86,2-2.98,.64-1.12,1.16-2.25,1.56-3.38s.6-2.15,.6-3.06c0-.96-.15-1.72-.44-2.28-.29-.56-.8-.84-1.52-.84-.64,0-1.26,.29-1.86,.88-.6,.59-1.13,1.37-1.6,2.34s-.83,2.06-1.1,3.26-.4,2.43-.4,3.68c0,.85,.09,1.63,.26,2.32,.17,.69,.35,1.31,.54,1.84Zm6.16,30.84c2.61-1.12,3.92-3.41,3.92-6.88,0-1.15-.29-2.19-.88-3.14s-1.37-1.7-2.36-2.26c-.99-.56-2.09-.84-3.32-.84l2.64,13.12Z"/>
</svg>