<?xml version="1.0" encoding="UTF-8"?>
<svg xmlns="http://www.w3.org/2000/svg" width="8.02" height="27" viewBox="0 0 8.02 27">
  <path d="M0,0H1.25V15.72c.99-.99,2.12-1.49,3.38-1.49,.86,0,1.64,.29,2.34,.87,.7,.58,1.05,1.42,1.05,2.52,0,.86-.26,1.65-.77,2.38-.51,.73-1.2,1.45-2.06,2.18l-2.78,2.38c-.51,.43-.97,.85-1.37,1.27-.4,.42-.75,.81-1.05,1.19V0ZM1.25,24.3c.7-.75,1.29-1.44,1.77-2.07,.48-.63,.86-1.19,1.13-1.67,.3-.51,.52-.98,.66-1.41s.22-.83,.22-1.21c0-.75-.18-1.3-.52-1.63-.35-.34-.73-.5-1.13-.5-.43,0-.85,.15-1.27,.46-.42,.31-.71,.73-.87,1.27v6.77Z"/>
</svg>