<?xml version="1.0" encoding="UTF-8"?>
<svg xmlns="http://www.w3.org/2000/svg" width="11.76" height="40" viewBox="0 0 11.76 40">
  <path d="M11.64,31.87V0h-1.11V30.09c-.66-.51-1.52-.79-2.57-.79-1.37,0-2.67,.31-3.88,.93-1.21,.62-2.2,1.47-2.95,2.54-.75,1.07-1.13,2.28-1.13,3.62,0,1.21,.4,2.12,1.21,2.71,.8,.59,1.84,.89,3.11,.89,1.35,0,2.58-.32,3.7-.97,1.12-.65,2.03-1.51,2.71-2.59s1.03-2.27,1.03-3.56c0-.36-.05-.69-.12-1Zm-3.5,3.6c-.75,.65-1.59,1.23-2.51,1.76-1.37,.77-2.52,1.15-3.45,1.15-.34,0-.61-.11-.81-.32-.2-.21-.3-.45-.3-.71,0-.4,.21-.87,.63-1.43,.42-.55,.98-1.13,1.66-1.72,.69-.59,1.42-1.14,2.2-1.64,.78-.5,1.52-.91,2.24-1.23,.71-.32,1.32-.48,1.82-.48,.37,0,.63,.1,.77,.3,.06,.08,.1,.18,.14,.28v.65h.06c-.05,.41-.26,.89-.65,1.45-.45,.65-1.05,1.29-1.8,1.94Z"/>
</svg>