<?xml version="1.0" encoding="UTF-8"?>
<svg xmlns="http://www.w3.org/2000/svg" width="16.43" height="10" viewBox="0 0 16.43 10">
  <path d="M0,4.96c0-.98,.36-1.84,1.07-2.58,.71-.74,1.69-1.32,2.92-1.75,1.23-.42,2.59-.64,4.07-.64s2.9,.21,4.17,.62c1.27,.41,2.29,.99,3.06,1.73,.77,.74,1.15,1.61,1.15,2.62s-.37,1.93-1.11,2.68c-.74,.75-1.73,1.34-2.96,1.75-1.23,.41-2.59,.62-4.07,.62s-2.85-.2-4.11-.59c-1.26-.4-2.27-.97-3.04-1.73s-1.15-1.66-1.15-2.72Zm9.13,4.25c.9,0,1.51-.33,1.85-.99,.33-.66,.5-1.44,.5-2.34s-.19-1.77-.58-2.54c-.38-.77-.89-1.38-1.53-1.85-.64-.46-1.35-.69-2.14-.69-.9,0-1.5,.33-1.81,.99-.3,.66-.46,1.44-.46,2.34s.19,1.73,.56,2.5c.37,.77,.87,1.39,1.49,1.86,.62,.48,1.33,.71,2.12,.71Z"/>
</svg>